#!OML:ASF F:\VICON\USERDATA\INSTALL\rory3\rory3.ASF
:FULLY-SPECIFIED
:DEGREES
1
root 0.6633814056599914 18.040103838207173 -17.852068946244415 -1.789120053843956 -3.1534110769102295 -5.63188129072162
lfemur -25.633906753462703 2.0280639254171415 -14.150666165433556
ltibia 67.27275083374892
lfoot -4.486226670039706 -3.4520044604414517
ltoes -6.359315516443549
rfemur -9.557618810148355 7.61946756688643 33.17155338370835
rtibia 30.744382238304915
rfoot -15.449222422786367 -3.8359242136170666
rtoes 11.08868064906694
lowerback 13.193711541251542 0.12962354716981228 3.4017766755784926
upperback -0.19005782913196062 0.893973402356774 2.4855361160073164
thorax -7.639843070794971 0.3536058583552856 0.5494824781800884
lowerneck -16.177891442455444 -3.1460414782575636 -2.2756531095683443
upperneck 22.009426850234867 -3.7371651589356527 -0.22880934404500475
head 9.679590486134655 -1.9559127879975051 -0.18532675753650257
lclavicle 1.473488847240416e-16 2.3728957606914628e-16
lhumerus -31.81116693859368 3.727026304164344 80.83598250862833
lradius 26.85396811674844
lwrist 6.469719474702728
lhand -26.956316978892605 21.726787181684518
lfingers 7.12502
lthumb -0.3779088403946431 51.70469726627802
rclavicle 1.473488847240416e-16 2.3728957606914628e-16
rhumerus -28.276946910996664 -19.505957835140027 -77.82972655849572
rradius 23.24221940637211
rwrist 5.023083442593295
rhand -14.681686872842326 14.2540316692848
rfingers 7.12502
rthumb 11.471715863576684 -15.408464024677375
2
root 0.67962679065562 17.951493253457315 -16.982896022990147 -1.4388882018159148 -4.0036120197899185 -6.254769209221517
lfemur -29.222504336994447 2.0098805598196035 -13.651006010349501
ltibia 60.06278208562797
lfoot -7.138714788443748 0.04987422415846687
ltoes -6.736415343556557
rfemur -6.698972748770322 7.653681920367395 34.0668608210303
rtibia 30.895610680709055
rfoot -18.41038904971661 -4.0047911630102515
rtoes 10.242166206030369
lowerback 12.639549282064552 0.6088035642493674 4.670889745836193
upperback 0.06100681666157323 1.6643367419689916 2.333499082757102
thorax -7.004149515464319 0.6913011015587003 -0.46716616539037004
lowerneck -15.966870162006506 -3.2176129697585827 -1.977372548388856
upperneck 21.528822033373277 -3.893808859979035 -0.32483932197858045
head 9.464146373358913 -2.014529743385748 -0.27917946656687975
lclavicle 1.4734888474864687e-16 2.3728955548605294e-16
lhumerus -32.81025890440229 4.5827913310276855 80.93285094070231
lradius 25.732338264711455
lwrist 5.542275836793762
lhand -26.753034109717373 21.240698966489177
lfingers 7.12502
lthumb -0.1815843329539546 51.21880146777512
rclavicle 1.4734888474864687e-16 2.3728955548605294e-16
rhumerus -25.672768875701273 -16.14066250139215 -79.8282364575528
rradius 25.8765514630228
rwrist 1.7906899768910702
rhand -15.737756504606157 20.772607723970996
rfingers 7.12502
rthumb 10.453138451588071 -8.942153717507589
3
root 0.6967228090536335 17.94476206470081 -16.092423494267848 -0.7426304500690688 -4.662224077664556 -6.693408930642237
lfemur -30.441491434702012 0.26762415465556977 -12.857868922723693
ltibia 46.95893391748271
lfoot -6.320985696802454 2.772251727983736
ltoes -7.690064955249186
rfemur -2.674220433291822 7.485494208531824 34.527495251491985
rtibia 28.12479514436975
rfoot -19.68574266139826 -3.7987019021758233
rtoes 7.841472682408705
lowerback 12.355081644084743 1.0638124392061055 5.539624562532484
upperback -0.0804662447751627 2.374985486726365 2.2467333650017873
thorax -6.923403052470658 1.006164620293416 -1.1679108878990168
lowerneck -16.486693432670272 -3.2233611255100167 -1.698092077230445
upperneck 21.752695681127427 -3.9452966494794874 -0.4092586783357717
head 9.631671939035986 -2.0217665262775784 -0.37385042194055
lclavicle 1.4734886710792827e-16 2.3728953414625306e-16
lhumerus -34.21423624088427 5.491895610984011 81.057381927234
lradius 24.851494508885445
lwrist 5.12960216739462
lhand -26.600393556535693 17.82384303696142
lfingers 7.12502
lthumb -0.034124784071495995 47.80206613760591
rclavicle 1.4734886710792827e-16 2.3728953414625306e-16
rhumerus -23.828413933193 -12.10572807079674 -81.35463160671094
rradius 28.767505294906684
rwrist -0.43550030642999094
rhand -18.93220818351694 22.253601904548162
rfingers 7.12502
rthumb 7.370585254742568 -7.601178809348475
4
root 0.7143066505992426 17.913617751814648 -15.188352292112633 0.057756119508622916 -5.4306602467014 -7.399864195995339
lfemur -29.94721939467282 -3.9630574456582317 -10.374567015855302
ltibia 31.949046455509567
lfoot -4.116801729953671 4.582374311119308
ltoes -6.010176721288721
rfemur 1.30753975407095 7.412826917143841 35.20092341214425
rtibia 25.34547717081996
rfoot -20.36864341163967 -3.510488337884048
rtoes 6.602207129278097
lowerback 11.878573917988383 1.4930740329888088 6.454837787652592
upperback -0.25649469181046686 3.0511967047854203 2.3352461554805295
thorax -6.75565078111036 1.3082803411555188 -1.687087395067103
lowerneck -16.530414130514338 -3.2885635920600054 -1.5735840589390855
upperneck 21.630409214809518 -4.050062488180617 -0.48050042270350524
head 9.592992259253737 -2.067867176928815 -0.4320825396700657
lclavicle 1.4734893287308022e-16 2.3728955503198016e-16
lhumerus -35.303112634116104 6.8150810096821 80.99157132350976
lradius 23.611376310969383
lwrist 4.450335775489388
lhand -26.701882149581888 21.221934400268957
lfingers 7.12502
lthumb -0.13212994363391073 51.20013128886579
rclavicle 1.4734893287308022e-16 2.3728955503198016e-16
rhumerus -22.057128253043718 -9.861217815221169 -81.89807898912508
rradius 30.675887424469984
rwrist -1.701450242789016
rhand -18.677517650662782 22.77302456565609
rfingers 7.12502
rthumb 7.616377542020546 -7.071923077680418
5
root 0.7406329054876937 17.867202679475415 -14.247180209021554 0.5144838925651962 -6.729838496700781 -7.496593936826181
lfemur -27.68045315330682 -8.49798472366906 -7.903974236596058
ltibia 16.86034686957786
lfoot -6.042995858682304 7.743939258466604
ltoes -0.39420674247048515
rfemur 5.049418013548827 6.853016352552068 34.98393629179783
rtibia 23.560045547276967
rfoot -20.497367091658596 -2.7483779521332217
rtoes 4.766109169205571
lowerback 11.580232494946205 2.130737314551234 6.703817224527148
upperback -0.3655670093177022 3.8999270828051817 2.162992713835931
thorax -6.6073571483602445 1.7144898076783766 -2.1346685539842776
lowerneck -16.45872795123265 -3.3307233658233453 -1.358380922388649
upperneck 21.39829608933283 -4.217597836513062 -0.271144858974831
head 9.498739820190165 -2.1044626273790605 -0.41321336238627693
lclavicle 1.4734885308999985e-16 2.3728954557286634e-16
lhumerus -36.508015588884064 8.793156556852407 80.01349906081006
lradius 21.901013657174044
lwrist 3.0469267858480387
lhand -26.253437053363825 19.207520658505004
lfingers 7.12502
lthumb 0.30096473162212445 49.18563888491793
rclavicle 1.4734885308999985e-16 2.3728954557286634e-16
rhumerus -20.903030076665306 -8.921843238737713 -82.22792899527832
rradius 32.22408303343757
rwrist -2.2099545219769796
rhand -19.061365008763 22.43740245651649
rfingers 7.12502
rthumb 7.245872672173161 -7.42187770064104
